<svg width="20px" height="20px" viewBox="0 0 27 27" version="1.1" xmlns="http://www.w3.org/2000/svg">
<mask id="mask0_1_185" style="mask-type:alpha" maskUnits="userSpaceOnUse" x="0" y="0" width="27" height="27">
<path d="M13.5 0C6.075 0 0 6.075 0 13.5C0 19.2375 3.6 24.075 8.55 26.1C8.4375 25.0875 8.325 23.4 8.55 22.275C8.775 21.2625 10.125 15.525 10.125 15.525C10.125 15.525 9.7875 14.625 9.7875 13.5C9.7875 11.5875 10.9125 10.2375 12.2625 10.2375C13.3875 10.2375 13.95 11.1375 13.95 12.15C13.95 13.275 13.1625 15.075 12.825 16.65C12.4875 18 13.5 19.125 14.85 19.125C17.2125 19.125 19.125 16.65 19.125 12.9375C19.125 9.675 16.7625 7.425 13.5 7.425C9.675 7.425 7.425 10.35 7.425 13.275C7.425 14.4 7.875 15.6375 8.4375 16.3125C8.55 16.425 8.55 16.5375 8.55 16.65C8.4375 17.1 8.2125 18 8.2125 18.225C8.1 18.45 7.9875 18.5625 7.7625 18.45C6.075 17.6625 5.0625 15.1875 5.0625 13.275C5.0625 9 8.2125 5.0625 13.95 5.0625C18.675 5.0625 22.275 8.4375 22.275 12.825C22.275 17.4375 19.35 21.2625 15.3 21.2625C13.95 21.2625 12.6 20.5875 12.15 19.6875C12.15 19.6875 11.475 22.275 11.3625 22.95C11.025 24.075 10.2375 25.5375 9.675 26.4375C10.8 26.775 12.15 27 13.5 27C20.925 27 27 20.925 27 13.5C27 6.075 20.925 0 13.5 0Z" fill="white"/>
</mask>
<g mask="url(#mask0_1_185)">
<path d="M13.5 0C6.075 0 0 6.075 0 13.5C0 19.2375 3.6 24.075 8.55 26.1C8.4375 25.0875 8.325 23.4 8.55 22.275C8.775 21.2625 10.125 15.525 10.125 15.525C10.125 15.525 9.7875 14.625 9.7875 13.5C9.7875 11.5875 10.9125 10.2375 12.2625 10.2375C13.3875 10.2375 13.95 11.1375 13.95 12.15C13.95 13.275 13.1625 15.075 12.825 16.65C12.4875 18 13.5 19.125 14.85 19.125C17.2125 19.125 19.125 16.65 19.125 12.9375C19.125 9.675 16.7625 7.425 13.5 7.425C9.675 7.425 7.425 10.35 7.425 13.275C7.425 14.4 7.875 15.6375 8.4375 16.3125C8.55 16.425 8.55 16.5375 8.55 16.65C8.4375 17.1 8.2125 18 8.2125 18.225C8.1 18.45 7.9875 18.5625 7.7625 18.45C6.075 17.6625 5.0625 15.1875 5.0625 13.275C5.0625 9 8.2125 5.0625 13.95 5.0625C18.675 5.0625 22.275 8.4375 22.275 12.825C22.275 17.4375 19.35 21.2625 15.3 21.2625C13.95 21.2625 12.6 20.5875 12.15 19.6875C12.15 19.6875 11.475 22.275 11.3625 22.95C11.025 24.075 10.2375 25.5375 9.675 26.4375C10.8 26.775 12.15 27 13.5 27C20.925 27 27 20.925 27 13.5C27 6.075 20.925 0 13.5 0Z" fill="#40413F"/>
</g>
</svg>
