<svg width="27" height="27" viewBox="0 0 27 27" fill="none" xmlns="http://www.w3.org/2000/svg">
<mask id="mask0_1_191" style="mask-type:alpha" maskUnits="userSpaceOnUse" x="0" y="2" width="27" height="23">
<path d="M27 5.26078C25.9875 5.70614 24.975 6.04016 23.85 6.1515C24.975 5.48346 25.875 4.37005 26.325 3.14531C25.2 3.81335 24.075 4.25871 22.8375 4.48139C21.825 3.36799 20.3625 2.69995 18.7875 2.69995C15.75 2.69995 13.275 5.14944 13.275 8.15562C13.275 8.60098 13.275 9.04634 13.3875 9.38036C8.6625 9.15768 4.6125 6.93088 1.9125 3.59067C1.35 4.48139 1.125 5.37212 1.125 6.37418C1.125 8.26696 2.1375 9.93706 3.6 10.9391C2.7 10.9391 1.8 10.7164 1.125 10.2711C1.125 10.2711 1.125 10.2711 1.125 10.3824C1.125 13.0546 3.0375 15.2814 5.5125 15.7268C5.0625 15.8381 4.6125 15.9494 4.05 15.9494C3.7125 15.9494 3.375 15.9494 3.0375 15.8381C3.7125 18.0649 5.7375 19.6237 8.2125 19.6237C6.3 21.0711 3.9375 21.9618 1.35 21.9618C0.9 21.9618 0.45 21.9618 0 21.8505C2.475 23.4092 5.4 24.2999 8.4375 24.2999C18.675 24.2999 24.1875 15.9494 24.1875 8.71232C24.1875 8.48964 24.1875 8.26696 24.1875 8.04428C25.3125 7.2649 26.2125 6.26284 27 5.26078Z" fill="white"/>
</mask>
<g mask="url(#mask0_1_191)">
<path d="M27 5.26078C25.9875 5.70614 24.975 6.04016 23.85 6.1515C24.975 5.48346 25.875 4.37005 26.325 3.14531C25.2 3.81335 24.075 4.25871 22.8375 4.48139C21.825 3.36799 20.3625 2.69995 18.7875 2.69995C15.75 2.69995 13.275 5.14944 13.275 8.15562C13.275 8.60098 13.275 9.04634 13.3875 9.38036C8.6625 9.15768 4.6125 6.93088 1.9125 3.59067C1.35 4.48139 1.125 5.37212 1.125 6.37418C1.125 8.26696 2.1375 9.93706 3.6 10.9391C2.7 10.9391 1.8 10.7164 1.125 10.2711C1.125 10.2711 1.125 10.2711 1.125 10.3824C1.125 13.0546 3.0375 15.2814 5.5125 15.7268C5.0625 15.8381 4.6125 15.9494 4.05 15.9494C3.7125 15.9494 3.375 15.9494 3.0375 15.8381C3.7125 18.0649 5.7375 19.6237 8.2125 19.6237C6.3 21.0711 3.9375 21.9618 1.35 21.9618C0.9 21.9618 0.45 21.9618 0 21.8505C2.475 23.4092 5.4 24.2999 8.4375 24.2999C18.675 24.2999 24.1875 15.9494 24.1875 8.71232C24.1875 8.48964 24.1875 8.26696 24.1875 8.04428C25.3125 7.2649 26.2125 6.26284 27 5.26078Z" fill="#40413F"/>
</g>
</svg>
